HIERARCHY
ROOT ui
{
	 OFFSET 0 0 0
	 CHANNELS 3 XPosition YPosition Z Position
	 EndSite
	 {
	 OFFSET 0 -1 0
	 }
}
ROOT li
{
	 OFFSET 0 0 0
	 CHANNELS 3 XPosition YPosition Z Position
	 EndSite
	 {
	 OFFSET 0 -1 0
	 }
}
ROOT ul
{
	 OFFSET 0 0 0
	 CHANNELS 3 XPosition YPosition Z Position
	 EndSite
	 {
	 OFFSET 0 -1 0
	 }
}
ROOT ll
{
	 OFFSET 0 0 0
	 CHANNELS 3 XPosition YPosition Z Position
	 EndSite
	 {
	 OFFSET 0 -1 0
	 }
}
ROOT tt
{
	 OFFSET 0 0 0
	 CHANNELS 3 XPosition YPosition Z Position
	 EndSite
	 {
	 OFFSET 0 -1 0
	 }
}
ROOT tb
{
	 OFFSET 0 0 0
	 CHANNELS 3 XPosition YPosition Z Position
	 EndSite
	 {
	 OFFSET 0 -1 0
	 }
}
ROOT td
{
	 OFFSET 0 0 0
	 CHANNELS 3 XPosition YPosition Z Position
	 EndSite
	 {
	 OFFSET 0 -1 0
	 }
}
ROOT v
{
	 OFFSET 0 0 0
	 CHANNELS 3 XPosition YPosition Z Position
	 EndSite
	 {
	 OFFSET 0 -1 0
	 }
}
ROOT bn
{
	 OFFSET 0 0 0
	 CHANNELS 3 XPosition YPosition Z Position
	 EndSite
	 {
	 OFFSET 0 -1 0
	 }
}
MOTION
Frames: 13
Frame Time: 0.002
0.007054542064666748	-0.008419621467590331	0		0.5805808715820312	-2.512390869140625	0		-1.15459814453125	-0.06659098815917969	0		-0.5469903564453125	-2.6609140625	0		2.122640380859375	-1.238031005859375	0		3.454283203125	-0.0035300290584564208	0		4.8059189453125	0.4447265625	0		5.9691982421875	0.504307373046875	0		-0.4446309814453125	5.81748291015625	0		
-0.007822282791137695	0.005423085212707519	0		0.5922122192382813	-2.518890380859375	0		-1.1976552734375	-0.06932707214355469	0		-0.6200726928710938	-2.63741162109375	0		2.1282109375	-1.264642822265625	0		3.469137451171875	-0.016386449813842772	0		4.82886474609375	0.43563400268554686	0		5.96148779296875	0.5373815307617188	0		-0.428899169921875	5.826068359375	0		
0.010028475761413575	-0.006071662902832032	0		0.5788758544921875	-2.521130126953125	0		-1.1517518310546875	-0.07498047637939453	0		-0.5585513305664063	-2.652295654296875	0		2.218738525390625	-1.2941356201171874	0		3.539962158203125	-0.030821996688842772	0		4.8568671875	0.4334932861328125	0		5.96931298828125	0.5354852905273437	0		-0.4102200012207031	5.83161962890625	0		
0.017058963775634765	5.490040183067322E-4	0		0.5966407470703124	-2.5136875	0		-1.1518021240234375	-0.07515853118896484	0		-0.6055657348632812	-2.6220458984375	0		2.25353173828125	-1.2970509033203126	0		3.534990478515625	-0.02446172523498535	0		4.88993408203125	0.43830960083007814	0		5.9666142578125	0.575408447265625	0		-0.37754095458984377	5.8390234375	0		
-0.004910984039306641	0.007484424114227295	0		0.6093482055664062	-2.512185302734375	0		-1.1749608154296876	-0.08508717346191406	0		-0.5709241333007813	-2.6256494140625	0		2.28409130859375	-1.3219149169921875	0		3.568589599609375	-0.058493392944335934	0		4.90978515625	0.423281494140625	0		5.96421337890625	0.5202166137695312	0		-0.37696539306640625	5.838767578125	0		
0.00989179801940918	-0.006959996223449707	0		0.590958740234375	-2.520339111328125	0		-1.175016357421875	-0.08525141143798828	0		-0.5702190551757812	-2.623886474609375	0		2.28390869140625	-1.32243408203125	0		3.595438720703125	-0.0684335174560547	0		4.95084375	0.42805267333984376	0		5.96418310546875	0.51865625	0		-0.388552001953125	5.82565087890625	0		
-0.008035924911499024	0.003962894916534424	0		0.6186511840820312	-2.521970703125	0		-1.175072021484375	-0.08540623474121094	0		-0.5644488525390625	-2.617166259765625	0		2.32737158203125	-1.356403564453125	0		3.64520849609375	-0.08559794616699219	0		4.97867431640625	0.41199310302734377	0		5.969044921875	0.4945452880859375	0		-0.407970947265625	5.830634765625	0		
-0.00504975700378418	0.006677590847015381	0		0.5674585571289062	-2.51372509765625	0		-1.2471661376953125	-0.08876268768310547	0		-0.627584228515625	-2.60267919921875	0		2.36208642578125	-1.36725634765625	0		3.661207275390625	-0.08136762237548828	0		5.00972998046875	0.4169346008300781	0		5.97630126953125	0.5275404052734375	0		-0.359299560546875	5.84589453125	0		
0.009750476837158203	-0.007719590187072754	0		0.61912109375	-2.5205810546875	0		-1.1751796875	-0.08567835235595703	0		-0.5898736572265625	-2.604275146484375	0		2.399763427734375	-1.38211669921875	0		3.711744384765625	-0.1194849395751953	0		5.05654248046875	0.39974044799804687	0		5.974171875	0.5349178466796874	0		-0.37195773315429687	5.8338369140625	0		
-0.005136411190032959	0.006233726978302002	0		0.5669379272460937	-2.514267578125	0		-1.2082716064453125	-0.0894253158569336	0		-0.5891114501953125	-2.602448486328125	0		2.4204599609375	-1.3957606201171875	0		3.74480078125	-0.11037294006347656	0		5.0696103515625	0.40596221923828124	0		5.97637890625	0.5543824462890625	0		-0.37151312255859376	5.83365673828125	0		
-0.0051742677688598636	0.006046531200408936	0		0.6077114868164063	-2.513957763671875	0		-1.16933056640625	-0.09095401763916015	0		-0.5873311767578125	-2.600612548828125	0		2.475141357421875	-1.4117510986328126	0		3.76046240234375	-0.1370306396484375	0		5.10235595703125	0.3830107116699219	0		5.97412060546875	0.532540771484375	0		-0.4051488037109375	5.82887841796875	0		
0.006601501941680908	-0.011249252319335937	0		0.5723287963867187	-2.528769775390625	0		-1.247353759765625	-0.08915397644042969	0		-0.5746332397460937	-2.607877685546875	0		2.487824951171875	-1.4282391357421875	0		3.781395751953125	-0.13970333862304687	0		5.12832666015625	0.380183837890625	0		5.97115087890625	0.5108180541992188	0		-0.4027788391113281	5.82672314453125	0		
0.009608874320983887	-0.008419351577758789	0		0.628128662109375	-2.529577392578125	0		-1.1914681396484375	-0.09683821105957031	0		-0.6016976928710938	-2.595669677734375	0		2.527451416015625	-1.450993896484375	0		3.847983154296875	-0.17385031127929687	0		5.15514404296875	0.363397216796875	0		5.974083984375	0.5305593872070312	0		-0.3522666931152344	5.83904833984375	0		
